<?xml version="1.0" encoding="UTF-8"?>
<svg width="49px" height="35px" viewBox="0 0 49 35" version="1.1" xmlns="http://www.w3.org/2000/svg" xmlns:xlink="http://www.w3.org/1999/xlink">
    <!-- Generator: Sketch 52.6 (67491) - http://www.bohemiancoding.com/sketch -->
    <title>noun_gadgets_2190360</title>
    <desc>Created with Sketch.</desc>
    <g id="Page-1" stroke="none" stroke-width="1" fill="none" fill-rule="evenodd">
        <g id="noun_gadgets_2190360" fill="#FFFFFF">
            <path d="M15.258,29.762 C14.44,29.762 13.775,30.428 13.775,31.246 C13.775,32.064 14.441,32.73 15.258,32.73 C16.076,32.73 16.742,32.064 16.742,31.246 C16.742,30.428 16.076,29.762 15.258,29.762 Z M15.258,31.73 C14.991,31.73 14.775,31.513 14.775,31.246 C14.775,30.979 14.992,30.762 15.258,30.762 C15.525,30.762 15.742,30.98 15.742,31.246 C15.742,31.514 15.525,31.73 15.258,31.73 Z" id="Shape" fill-rule="nonzero"></path>
            <path d="M16.104,13.172 C16.104,12.896 15.88,12.672 15.604,12.672 L12.737,12.672 C12.461,12.672 12.237,12.896 12.237,13.172 C12.237,13.448 12.461,13.672 12.737,13.672 L15.604,13.672 C15.88,13.672 16.104,13.449 16.104,13.172 Z" id="Path"></path>
            <path d="M17.78,12.672 L16.717,12.672 C16.441,12.672 16.217,12.896 16.217,13.172 C16.217,13.448 16.441,13.672 16.717,13.672 L17.78,13.672 C18.056,13.672 18.28,13.448 18.28,13.172 C18.28,12.896 18.057,12.672 17.78,12.672 Z" id="Path"></path>
            <path d="M47.603,9.759 L46.429,9.759 L46.429,2.837 C46.429,1.66 45.472,0.703 44.296,0.703 L10.9,0.703 C9.723,0.703 8.766,1.66 8.766,2.837 L8.766,11.106 L1.615,11.106 C0.988,11.106 0.477,11.616 0.477,12.243 L0.477,33.16 C0.477,33.787 0.987,34.297 1.615,34.297 L28.901,34.297 C29.528,34.297 30.038,33.787 30.038,33.16 L30.038,25.5 L36.669,25.5 L36.669,29.305 C36.669,29.812 37.082,30.225 37.59,30.225 L47.603,30.225 C48.11,30.225 48.523,29.812 48.523,29.305 L48.523,10.679 C48.522,10.172 48.109,9.759 47.603,9.759 Z M36.669,10.679 L36.669,22.201 L30.038,22.201 L30.038,12.243 C30.038,11.616 29.528,11.106 28.901,11.106 L12.165,11.106 L12.165,5.274 C12.165,4.625 12.692,4.097 13.341,4.097 L41.854,4.097 C42.503,4.097 43.032,4.625 43.032,5.274 L43.032,9.758 L37.59,9.758 C37.082,9.759 36.669,10.172 36.669,10.679 Z M39.385,10.759 L45.808,10.759 L45.808,10.948 L39.385,10.948 L39.385,10.759 Z M9.767,2.837 C9.767,2.212 10.276,1.703 10.901,1.703 L44.297,1.703 C44.922,1.703 45.43,2.212 45.43,2.837 L45.43,9.759 L44.033,9.759 L44.033,5.275 C44.033,4.074 43.056,3.098 41.855,3.098 L13.341,3.098 C12.141,3.098 11.165,4.075 11.165,5.275 L11.165,11.107 L9.767,11.107 L9.767,2.837 Z M29.038,33.16 C29.038,33.235 28.976,33.297 28.901,33.297 L1.615,33.297 C1.539,33.297 1.477,33.235 1.477,33.16 L1.477,12.243 C1.477,12.168 1.539,12.106 1.615,12.106 L28.901,12.106 C28.976,12.106 29.038,12.168 29.038,12.243 L29.038,33.16 Z M30.038,24.5 L30.038,23.201 L36.669,23.201 L36.669,24.5 L30.038,24.5 Z M47.522,29.225 L37.668,29.225 L37.668,10.759 L38.384,10.759 L38.384,11.03 C38.384,11.537 38.797,11.949 39.304,11.949 L45.886,11.949 C46.394,11.949 46.807,11.537 46.807,11.03 L46.807,10.759 L47.522,10.759 L47.522,29.225 Z" id="Shape" fill-rule="nonzero"></path>
            <path d="M42.596,25.934 C41.741,25.934 41.045,26.628 41.045,27.483 C41.045,28.338 41.74,29.034 42.596,29.034 C43.452,29.034 44.148,28.339 44.148,27.483 C44.147,26.628 43.451,25.934 42.596,25.934 Z M42.596,28.033 C42.292,28.033 42.045,27.786 42.045,27.482 C42.045,27.179 42.292,26.933 42.596,26.933 C42.901,26.933 43.148,27.179 43.148,27.482 C43.147,27.786 42.9,28.033 42.596,28.033 Z" id="Shape" fill-rule="nonzero"></path>
        </g>
    </g>
</svg>