<?xml version="1.0" encoding="UTF-8"?>
<svg width="76px" height="92px" viewBox="0 0 76 92" version="1.1" xmlns="http://www.w3.org/2000/svg" xmlns:xlink="http://www.w3.org/1999/xlink">
    <!-- Generator: Sketch 52.6 (67491) - http://www.bohemiancoding.com/sketch -->
    <title>noun_write_484102</title>
    <desc>Created with Sketch.</desc>
    <g id="Page-1" stroke="none" stroke-width="1" fill="none" fill-rule="evenodd">
        <g id="noun_write_484102" fill="#FFFFFF" fill-rule="nonzero">
            <g id="Group">
                <g id="a-link">
                    <g id="a">
                        <path d="M76,32.75 C76,32.4833333 75.9,32.2666667 75.7,32.1 L65.85,22.25 C65.6833333,22.05 65.4666667,21.95 65.2,21.95 C65.1,21.95 65.0166667,21.9666667 64.95,22 C64.7833333,22.0333333 64.6333333,22.1166667 64.5,22.25 L20.45,66.3 C20.3166667,66.4 20.2333333,66.5 20.2,66.6 C20.1333333,66.6666667 20.0833333,66.7666667 20.05,66.9 L17.65,74.15 L17.65,74.2 L15.2,81.55 C15.1,81.7833333 15.1,82 15.2,82.2 C15.3333333,82.4666667 15.5,82.6666667 15.7,82.8 C15.9333333,82.8666667 16.1833333,82.8666667 16.45,82.8 L23.75,80.35 C23.7833333,80.3166667 23.8166667,80.3 23.85,80.3 L31.1,77.85 L31.15,77.85 C31.2166667,77.85 31.2833333,77.8333333 31.35,77.8 C31.45,77.7 31.5333333,77.5833333 31.6,77.45 L70.7,38.5 C70.7,38.4666667 70.7166667,38.4333333 70.75,38.4 L75.7,33.5 C75.9,33.3 76,33.05 76,32.75 Z M67.75,3.5 C67.75,2.73333333 67.5,2.08333333 67,1.55 C66.4333333,0.983333333 65.75,0.7 64.95,0.7 L2.8,0.7 C2,0.7 1.33333333,0.983333333 0.8,1.55 C0.266666667,2.08333333 0,2.73333333 0,3.5 L0,88.45 C0,89.25 0.266666667,89.9333333 0.8,90.5 C1.33333333,91 2,91.25 2.8,91.25 L64.95,91.25 C65.75,91.25 66.4333333,91 67,90.5 C67.5,89.9333333 67.75,89.25 67.75,88.45 L67.75,52.15 C67.75,51.35 67.5,50.7 67,50.2 C66.4333333,49.6333333 65.75,49.35 64.95,49.35 C64.1833333,49.35 63.5333333,49.6333333 63,50.2 C62.4333333,50.7 62.15,51.35 62.15,52.15 L62.15,85.65 L5.6,85.65 L5.6,6.35 L62.15,6.35 L62.15,16.6 C62.15,17.4 62.4333333,18.0833333 63,18.65 C63.5333333,19.1833333 64.1833333,19.45 64.95,19.45 C65.75,19.45 66.4333333,19.1833333 67,18.65 C67.5,18.0833333 67.75,17.4 67.75,16.6 L67.75,3.5 Z" id="Shape"></path>
                    </g>
                </g>
            </g>
        </g>
    </g>
</svg>