<?xml version="1.0" encoding="UTF-8"?>
<svg width="92px" height="92px" viewBox="0 0 92 92" version="1.1" xmlns="http://www.w3.org/2000/svg" xmlns:xlink="http://www.w3.org/1999/xlink">
    <!-- Generator: Sketch 52.6 (67491) - http://www.bohemiancoding.com/sketch -->
    <title>noun_file organizer_2079036</title>
    <desc>Created with Sketch.</desc>
    <g id="Page-1" stroke="none" stroke-width="1" fill="none" fill-rule="evenodd">
        <g id="noun_file-organizer_2079036" fill="#FFFFFF">
            <path d="M59.88379,14.90137 C58.7792205,14.90137 57.88379,15.7968005 57.88379,16.90137 C57.88379,18.0059395 58.7792205,18.90137 59.88379,18.90137 L65.56934,18.90137 C66.6739095,18.90137 67.56934,18.0059395 67.56934,16.90137 C67.56934,15.7968005 66.6739095,14.90137 65.56934,14.90137 L59.88379,14.90137 Z" id="Path"></path>
            <path d="M90,56 L77.68945,56 L77.68945,14.23047 C77.68945,13.1259005 76.7940195,12.23047 75.68945,12.23047 C74.5848805,12.23047 73.68945,13.1259005 73.68945,14.23047 L73.68945,54.80957 L52.4165,27.50879 L65.56934,27.50879 C66.6739095,27.50879 67.56934,26.6133595 67.56934,25.50879 C67.56934,24.4042205 66.6739095,23.50879 65.56934,23.50879 L49.29956,23.50879 L45.70947,18.90137 L53.56934,18.90137 C54.6739095,18.90137 55.56934,18.0059395 55.56934,16.90137 C55.56934,15.7968005 54.6739095,14.90137 53.56934,14.90137 L42.59265,14.90137 L38.17383,9.23047 L75.68945,9.23047 C76.7940195,9.23047 77.68945,8.3350395 77.68945,7.23047 C77.68945,6.1259005 76.7940195,5.23047 75.68945,5.23047 L35.05688,5.23047 L31.57715,0.76953 C31.1979148,0.283923952 30.6161433,6.34355861e-05 30,0 L2,0 C0.895453375,5.52231896e-05 5.52231896e-05,0.895453375 0,2 L0,60 C0,61.1045695 0.8954305,62 2,62 C3.1045695,62 4,61.1045695 4,60 L4,4 L29.02344,4 L32.50293,8.46094 L32.50708,8.46533 L72.0625,59.22949 C72.4413432,59.7157026 73.0232695,60.0000003 73.63965,60 L88,60 L88,88 L4,88 L4,79 C4,77.8954305 3.1045695,77 2,77 C0.8954305,77 0,77.8954305 0,79 L0,90 C5.52231896e-05,91.1045466 0.895453375,91.9999448 2,92 L90,92 C91.1045466,91.9999448 91.9999448,91.1045466 92,90 L92,58 C91.9999448,56.8954534 91.1045466,56.0000552 90,56 Z" id="Path"></path>
            <path d="M2,73 C3.10454662,72.9999448 3.99994478,72.1045466 4,71 L4,68 C4,66.8954305 3.1045695,66 2,66 C0.8954305,66 -6.66133815e-16,66.8954305 -8.8817842e-16,68 L-8.8817842e-16,71 C5.52231896e-05,72.1045466 0.895453375,72.9999448 2,73 Z" id="Path"></path>
        </g>
    </g>
</svg>