<?xml version="1.0" encoding="UTF-8"?>
<svg width="90px" height="86px" viewBox="0 0 90 86" version="1.1" xmlns="http://www.w3.org/2000/svg" xmlns:xlink="http://www.w3.org/1999/xlink">
    <!-- Generator: Sketch 52.6 (67491) - http://www.bohemiancoding.com/sketch -->
    <title>noun_scan_1156898</title>
    <desc>Created with Sketch.</desc>
    <g id="Page-1" stroke="none" stroke-width="1" fill="none" fill-rule="evenodd">
        <g id="noun_scan_1156898" fill="#FFFFFF">
            <g id="Group">
                <g id="Path">
                    <path d="M-8.8817842e-16,0.3 C3.3,0.3 6.5,0.3 9.7,0.3 C9.7,1.4 9.7,2.4 9.7,3.5 C7.6,3.5 5.5,3.5 3.3,3.5 C3.3,5.7 3.3,7.8 3.3,10 C2.2,10 1.1,10 -8.8817842e-16,10 C0,6.9 0,3.6 -8.8817842e-16,0.3 Z"></path>
                    <path d="M80.2,3.6 C80.2,2.4 80.2,1.4 80.2,0.3 C83.4,0.3 86.7,0.3 90,0.3 C90,3.5 90,6.7 90,10 C89,10 87.9,10 86.8,10 C86.8,7.9 86.8,5.8 86.8,3.5 C84.6,3.6 82.4,3.6 80.2,3.6 Z"></path>
                    <path d="M3.2,82.4 C5.5,82.4 7.6,82.4 9.7,82.4 C9.7,83.5 9.7,84.5 9.7,85.6 C6.5,85.6 3.2,85.6 0,85.6 C0,82.4 0,79.1 0,75.9 C1,75.9 2.1,75.9 3.2,75.9 C3.2,78.1 3.2,80.2 3.2,82.4 Z"></path>
                    <path d="M80.2,85.7 C80.2,84.6 80.2,83.6 80.2,82.5 C82.4,82.5 84.5,82.5 86.7,82.5 C86.7,80.3 86.7,78.2 86.7,76 C87.8,76 88.9,76 90,76 C90,79.2 90,82.4 90,85.7 C86.8,85.7 83.6,85.7 80.2,85.7 Z"></path>
                </g>
                <g transform="translate(9.000000, 0.000000)" id="Path">
                    <path d="M55.7,61.5 C55.7,66.4 55.1,71.2 54,76 C53.7,77.2 54.2,78 55.2,78.2 C56.1,78.4 56.9,77.8 57.2,76.6 C58.3,71.8 58.9,67 59,62.1 C58.9,60.8 58.9,59.7 58.8,58.4 C58.7,57.5 58.6,56.9 58.4,55.9 L55,55.9 C55.5,58 55.7,59.6 55.7,61.5 Z"></path>
                    <path d="M35.1,36.5 C42.5,37.8 48.5,42 52.1,48 L55.9,48 C52.3,41 46.3,36 37.7,33.9 C26.5,31.1 16.9,34.5 9.4,43.4 C8.1,44.9 7,47 6.2,48 L10,48 C15.1,40 25.1,34.7 35.1,36.5 Z"></path>
                    <path d="M3.2,59.6 C3.1,60.7 3.7,61.3 4.7,61.4 C5.7,61.5 6.4,60.8 6.5,59.7 C6.6,58.9 6.7,58.2 6.8,57.3 C6.9,56.8 7,56 7.1,56 L3.7,56 C3.4,57 3.2,58.3 3.2,59.6 Z"></path>
                    <path d="M40.3,27.8 C26.9,24 15.1,27.8 5.5,37.9 C3.4,40.1 1.7,42.7 0.3,45.4 C-0.2,46.4 0.2,47.5 1.2,47.9 C2.1,48.2 2.8,47.8 3.4,46.8 C9.8,34.9 22.1,28.4 35.4,30.1 C45.9,31.4 55.1,39 59.5,48 L63,48 C59,38 51.5,31 40.3,27.8 Z"></path>
                    <path d="M62.1,66.6 C62,67.9 62.6,68.6 63.7,68.6 C64.7,68.6 65.4,67.9 65.4,66.7 C65.5,65.5 65.5,64.2 65.6,63 C65.6,63 65.6,63 65.7,63 C65.6,61.2 65.6,59.6 65.4,57.8 C65.4,57.2 65.3,56.1 65.2,56.1 L61.9,56.1 C62.4,59 62.3,63 62.1,66.6 Z"></path>
                    <path d="M27.3,39.8 C22,40.7 17.2,44 14,48 L18.3,48 C22.4,44 28.5,41.9 34.9,43.2 C38.4,43.9 41.4,46 43.8,48 L48.1,48 C43.4,42 35.7,38.5 27.3,39.8 Z"></path>
                    <path d="M9.9,58.4 C9.5,62 9.6,65.6 8.3,69 C8,69.8 8.6,70.6 9.4,70.9 C10.2,71.2 11,70.8 11.4,70 C11.5,69.8 11.6,69.5 11.6,69.3 C12.5,66.6 12.9,64 13,61.2 C13,59.3 13.3,57 13.9,56 L10.5,56 C10.2,57 10,57.6 9.9,58.4 Z"></path>
                    <path d="M49.1,62.7 C48.9,69 47.8,75 45.8,81 C45.4,82.3 45.7,83.1 46.7,83.4 C47.7,83.8 48.5,83.2 48.9,82 C51,75.6 52.3,69 52.5,62.2 C52.4,60.6 52.4,59.2 52.1,57.6 C52,57 51.8,56 51.7,56 L48.3,56 C48.9,58 49.2,60.3 49.1,62.7 Z"></path>
                    <path d="M15.3,23 C9.7,25.3 4.9,28.8 0.8,33.2 C0,34 0,35 0.8,35.7 C1.5,36.4 2.5,36.3 3.3,35.5 C3.5,35.3 3.6,35.2 3.7,35 C12.7,25.9 23.5,21.7 36.2,23.6 C51,25.8 61.1,34 66.5,48 L70,48 C62.7,26 37.5,13.8 15.3,23 Z"></path>
                    <path d="M23.8,48 L38.4,48 C36.2,47 33.8,46 31.2,46.1 C28.4,46.1 25.9,47 23.8,48 Z"></path>
                    <path d="M16.4,59.3 C16.2,61.3 16.2,63.2 15.9,65.2 C15.5,68.4 14.4,71.4 13.2,74.4 C12.8,75.3 13.2,76.2 14,76.6 C14.9,77 15.8,76.6 16.2,75.7 C17.6,72.4 18.7,69 19.2,65.5 C19.5,63.3 19.4,61.2 19.8,59.1 C20,58 20.4,57.1 20.9,56.1 L17.3,56.1 C16.8,57 16.5,58.1 16.4,59.3 Z"></path>
                    <path d="M42.2,59 C42.6,61.6 42.4,64.3 42.1,67 C41.6,72.6 40.1,77.9 38,83 C37.5,84.1 37.8,85 38.8,85.4 C39.7,85.8 40.6,85.3 41.1,84.2 C43.8,77.4 45.5,70.3 45.9,63 C45.8,61.7 45.8,60.5 45.7,59.2 C45.5,58 45.2,57 44.8,56 L41.2,56 C41.7,57 42.1,57.9 42.2,59 Z"></path>
                    <path d="M5.4,24.9 C5.7,24.8 6,24.5 6.3,24.4 C15.9,18 26.5,15.6 37.9,17.4 C51.2,19.5 61.5,26.4 68.8,37.8 C68.9,38 69,38.2 69.2,38.3 C69.8,38.9 70.6,39.1 71.3,38.6 C72,38.2 72.2,37.3 71.9,36.6 C71.8,36.3 71.6,36.1 71.4,35.8 C61.8,21.3 48.3,14 32.9,13.4 C21.3,13.5 12.4,16.2 4.3,21.6 C4,21.8 3.7,22 3.5,22.2 C2.9,22.8 2.8,23.6 3.3,24.3 C3.7,25 4.6,25.2 5.4,24.9 Z"></path>
                    <path d="M22.9,60.5 C22.7,62.3 22.7,64.1 22.5,66 C21.9,70.4 20.5,74.5 18.6,78.5 C18.1,79.5 18.4,80.4 19.3,80.8 C20.2,81.2 21,80.8 21.5,79.8 C24.2,74 26,67.9 26.1,61.4 C26.1,58.4 28.2,56.2 31,56.2 C33.8,56.2 35.9,58.4 35.9,61.4 C35.9,65.9 35.3,70.3 33.9,74.6 C33,77.5 31.9,80.2 30.8,83.1 C30.5,83.8 30.4,84.5 31,85 C31.4,85.3 32.1,85.6 32.5,85.5 C33,85.3 33.6,84.8 33.8,84.2 C36.9,77.4 38.8,70.4 39.1,63 C39.1,62.4 39.1,61.9 39.1,61.3 C39,59.2 38.3,57.1 37,56.1 L24.9,56.1 C23.8,57 23.1,58.6 22.9,60.5 Z"></path>
                    <path d="M11.3,14.1 C16.2,12 21.3,10.7 26.7,10.3 C39.2,9.3 50.6,12.4 60.8,19.7 C62.6,21 64.2,22.4 65.8,23.8 C66.4,24.3 67,24.6 67.7,24.2 C67.9,24 68.1,23.8 68.3,23.6 C68.7,23.1 68.7,22.5 68.4,22 C68.2,21.7 68.1,21.5 67.9,21.3 C65.2,18.7 62.2,16.5 58.9,14.5 C47.4,7.7 35,5.4 21.9,7.6 C17.8,8.3 13.8,9.4 10,11.1 C8.8,11.6 8.4,12.7 9,13.6 C9.5,14.4 10.3,14.6 11.3,14.1 Z"></path>
                    <path d="M21.4,4.4 C21.7,4.4 22,4.3 22.2,4.3 C28.4,3.3 34.7,3.4 40.9,4.5 C46.5,5.5 51.8,7.2 56.9,9.8 C57.9,10.3 58.9,10.1 59.3,9.2 C59.8,8.3 59.4,7.4 58.3,6.8 C58.1,6.7 58,6.6 57.8,6.6 C49.4,2.4 40.5,0.4 31,0.5 C29.5,0.5 28,0.4 26.5,0.5 C24.6,0.6 22.7,0.9 20.9,1.2 C19.9,1.4 19.4,2.1 19.5,3.1 C19.7,3.9 20.4,4.4 21.4,4.4 Z"></path>
                    <path d="M32.7,62.4 C32.7,61.2 32.1,60.4 31.1,60.4 C30.1,60.4 29.6,61.1 29.5,62.4 C29.3,64.9 29.1,67.5 28.7,70 C28,74.3 26.4,78.4 24.6,82.4 C24.1,83.4 24.4,84.4 25.3,84.8 C26.2,85.2 27.1,84.8 27.5,83.9 C30.5,77.5 32.5,70.8 32.8,63.5 C32.7,63.2 32.7,62.8 32.7,62.4 Z"></path>
                </g>
                <rect id="Rectangle" x="0" y="48.1" width="90" height="4.3"></rect>
            </g>
        </g>
    </g>
</svg>