<?xml version="1.0" encoding="UTF-8"?>
<svg width="4px" height="3px" viewBox="0 0 4 3" version="1.1" xmlns="http://www.w3.org/2000/svg" xmlns:xlink="http://www.w3.org/1999/xlink">
    <!-- Generator: Sketch 52.6 (67491) - http://www.bohemiancoding.com/sketch -->
    <title>noun_vault_1492890</title>
    <desc>Created with Sketch.</desc>
    <g id="Page-1" stroke="none" stroke-width="1" fill="none" fill-rule="evenodd">
        <g id="noun_vault_1492890" fill="#FFFFFF" fill-rule="nonzero">
            <path d="M0.081,4.16333634e-17 L3.316,4.16333634e-17 C3.361,4.16333634e-17 3.397,0.036 3.397,0.081 L3.397,2.912 C3.397,2.957 3.361,2.993 3.316,2.993 L0.081,2.993 C0.036,2.993 0,2.957 0,2.912 L0,0.081 C0,0.036 0.036,0 0.081,4.16333634e-17 Z M2.419,1.577 C2.378,1.573 2.346,1.538 2.346,1.496 C2.346,1.454 2.378,1.42 2.419,1.416 C2.408,1.364 2.388,1.316 2.359,1.273 C2.328,1.299 2.281,1.297 2.251,1.268 C2.221,1.238 2.22,1.191 2.246,1.159 C2.203,1.131 2.155,1.111 2.103,1.1 C2.099,1.141 2.064,1.173 2.022,1.173 C1.98,1.173 1.946,1.141 1.942,1.1 C1.89,1.111 1.841,1.131 1.799,1.159 C1.825,1.191 1.823,1.238 1.793,1.268 C1.764,1.297 1.717,1.299 1.685,1.273 C1.657,1.316 1.636,1.364 1.626,1.416 C1.667,1.42 1.699,1.454 1.699,1.496 C1.699,1.538 1.667,1.573 1.626,1.577 C1.636,1.629 1.657,1.677 1.685,1.72 C1.717,1.694 1.764,1.696 1.793,1.725 C1.823,1.755 1.825,1.802 1.799,1.834 C1.841,1.862 1.89,1.882 1.942,1.893 C1.946,1.852 1.98,1.82 2.022,1.82 C2.064,1.82 2.099,1.852 2.103,1.893 C2.155,1.882 2.203,1.862 2.246,1.834 C2.22,1.802 2.221,1.755 2.251,1.725 C2.281,1.696 2.328,1.694 2.359,1.72 C2.388,1.677 2.408,1.629 2.419,1.577 Z M2.022,0.93 C2.179,0.93 2.32,0.994 2.423,1.096 C2.525,1.199 2.588,1.34 2.588,1.496 C2.588,1.653 2.525,1.794 2.423,1.897 C2.32,1.999 2.179,2.063 2.022,2.063 C1.866,2.063 1.724,1.999 1.622,1.897 C1.519,1.794 1.456,1.653 1.456,1.496 C1.456,1.34 1.519,1.199 1.622,1.096 C1.724,0.994 1.866,0.93 2.022,0.93 Z M2.022,1.254 C2.089,1.254 2.149,1.281 2.194,1.325 C2.238,1.369 2.265,1.43 2.265,1.496 C2.265,1.563 2.238,1.624 2.194,1.668 C2.15,1.712 2.089,1.739 2.022,1.739 C1.955,1.739 1.895,1.712 1.851,1.668 C1.807,1.624 1.78,1.563 1.78,1.496 C1.78,1.429 1.807,1.369 1.851,1.325 C1.895,1.281 1.956,1.254 2.022,1.254 Z M2.079,1.439 C2.065,1.425 2.045,1.416 2.022,1.416 C2,1.416 1.979,1.425 1.965,1.439 C1.95,1.454 1.941,1.474 1.941,1.496 C1.941,1.519 1.95,1.539 1.965,1.554 C1.98,1.568 2,1.577 2.022,1.577 C2.045,1.577 2.065,1.568 2.079,1.554 L2.08,1.554 C2.094,1.539 2.103,1.519 2.103,1.496 C2.103,1.474 2.094,1.454 2.08,1.439 L2.079,1.439 Z M0.566,1.616 C0.6,1.621 0.626,1.65 0.626,1.685 L0.626,2.112 C0.626,2.147 0.6,2.176 0.566,2.181 L0.566,2.427 L2.831,2.427 L2.831,0.566 L0.566,0.566 L0.566,0.812 C0.6,0.817 0.626,0.846 0.626,0.881 L0.626,1.308 C0.626,1.343 0.6,1.372 0.566,1.377 L0.566,1.616 Z M0.404,2.181 C0.37,2.177 0.343,2.148 0.343,2.112 L0.343,1.685 C0.343,1.649 0.37,1.62 0.404,1.616 L0.404,1.377 C0.37,1.373 0.343,1.344 0.343,1.308 L0.343,0.881 C0.343,0.845 0.37,0.816 0.404,0.812 L0.404,0.485 C0.404,0.441 0.441,0.404 0.485,0.404 L2.912,0.404 C2.957,0.404 2.993,0.441 2.993,0.485 L2.993,2.508 C2.993,2.552 2.957,2.588 2.912,2.588 L0.485,2.588 C0.441,2.588 0.404,2.552 0.404,2.508 L0.404,2.181 Z M0.972,1.011 C0.972,0.966 1.008,0.93 1.053,0.93 C1.097,0.93 1.134,0.966 1.134,1.011 L1.134,1.982 C1.134,2.026 1.097,2.063 1.053,2.063 C1.008,2.063 0.972,2.026 0.972,1.982 L0.972,1.011 Z M3.236,0.162 L0.162,0.162 L0.162,2.831 L3.236,2.831 L3.236,0.162 Z" id="Shape"></path>
        </g>
    </g>
</svg>